Coordinates
version=1
nRows=8
nColumns=40
inDegrees=yes

Units are S.I. units (second, meters, Newtons, ...)
Angles are in degrees.

endheader
time	pelvis_tilt	pelvis_list	pelvis_rotation	pelvis_tx	pelvis_ty	pelvis_tz	hip_flexion_r	hip_adduction_r	hip_rotation_r	knee_angle_r	knee_angle_r_beta	ankle_angle_r	subtalar_angle_r	mtp_angle_r	hip_flexion_l	hip_adduction_l	hip_rotation_l	knee_angle_l	knee_angle_l_beta	ankle_angle_l	subtalar_angle_l	mtp_angle_l	lumbar_extension	lumbar_bending	lumbar_rotation	arm_flex_r	arm_add_r	arm_rot_r	elbow_flex_r	pro_sup_r	wrist_flex_r	wrist_dev_r	arm_flex_l	arm_add_l	arm_rot_l	elbow_flex_l	pro_sup_l	wrist_flex_l	wrist_dev_l
      1.58000000	     -0.90298869	     -2.23548680	      2.99780770	      0.43176381	      0.89350080	     -1.00865805	     10.72594934	      3.96843009	    -14.27652272	    -23.86182121	     -0.41646735	     10.29735156	     -3.00744760	      1.37863592	     22.86921919	      7.68898795	      4.87205718	    -67.21286455	     -1.17308579	      0.74438414	     18.02323871	     10.54885358	     -3.11744593	      2.08046304	     -3.33921956	     -2.75115768	     -9.25984477	    -13.67103494	     30.00453668	     89.95437384	      0.00000000	      0.00000000	     -3.08461296	      9.58967358	     15.08998151	     38.39451471	     89.95437384	      0.00000000	      0.00000000
      1.59000000	     -0.78229558	     -2.15566478	      2.64073408	      0.44088998	      0.89403674	     -1.00758873	      9.73192704	      4.06293828	    -14.07208539	    -23.48286428	     -0.40985330	     10.64240527	     -2.79230077	      1.24403884	     23.67822986	      7.77206117	      5.42681377	    -66.42614552	     -1.15935495	      1.88070970	     18.20478887	     10.95272594	     -3.32356780	      1.99096757	     -2.81317901	     -2.45343484	     -9.43355314	    -13.40466095	     31.06223227	     89.95437384	      0.00000000	      0.00000000	     -3.49740269	      9.35332805	     15.32476085	     37.48268292	     89.95437384	      0.00000000	      0.00000000
      1.60000000	     -0.87670023	     -2.08006499	      2.43205559	      0.44998446	      0.89406243	     -1.00673054	      9.05026758	      4.05353599	    -14.20539211	    -23.26431513	     -0.40603890	     10.89963251	     -2.73360922	      1.17328844	     24.76359998	      7.81812835	      5.87866589	    -65.50408642	     -1.14326198	      2.53627122	     18.34149584	     10.96352679	     -3.23926414	      1.87923293	     -2.57520759	     -2.03069627	     -9.50442127	    -13.34388053	     31.87053162	     89.95437384	      0.00000000	      0.00000000	     -4.14967828	      9.22277066	     15.41120242	     36.81945387	     89.95437384	      0.00000000	      0.00000000
      1.61000000	     -0.50195836	     -1.83002828	      2.00351709	      0.45928838	      0.89485378	     -1.00609543	      7.73476206	      3.84871170	    -14.02662256	    -22.86763774	     -0.39911557	     11.31291599	     -1.62123324	     -0.08195792	     25.08533919	      7.57242811	      6.45355893	    -64.35613542	     -1.12322646	      5.00411821	     18.31452017	     19.16925601	     -3.74723662	      1.64448527	     -1.93204657	     -1.89294113	     -9.72588096	    -13.16452091	     33.25430985	     89.95437384	      0.00000000	      0.00000000	     -4.37685477	      8.87965568	     15.94281806	     35.74121474	     89.95437384	      0.00000000	      0.00000000
      1.62000000	     -0.66513163	     -1.81784667	      1.82782078	      0.46819342	      0.89454420	     -1.00531070	      7.19853642	      3.90905803	    -14.11237188	    -22.72791935	     -0.39667702	     11.52516298	     -1.60428727	     -0.13093500	     26.17803929	      7.63129202	      6.78405843	    -63.07800444	     -1.10091886	      5.52413030	     18.41002780	     18.94670422	     -3.61595985	      1.58757697	     -1.70383646	     -1.46857029	     -9.82524607	    -13.12157996	     34.02792149	     89.95437384	      0.00000000	      0.00000000	     -4.98959199	      8.76098572	     15.98824346	     35.11793809	     89.95437384	      0.00000000	      0.00000000
      1.63000000	     -0.68703822	     -1.71728795	      1.51398199	      0.47717406	      0.89450076	     -1.00475255	      6.36685678	      3.93123816	    -13.66011819	    -22.32971826	     -0.38972710	     11.96501710	     -1.37143895	     -0.26791087	     26.92657812	      7.51592796	      7.13565692	    -61.51767034	     -1.07368590	      6.54597902	     18.54842001	     18.85549553	     -3.67956601	      1.49393885	     -1.16132231	     -1.34473641	    -10.02661431	    -13.00709536	     35.23516048	     89.95437384	      0.00000000	      0.00000000	     -5.17959774	      8.47088774	     16.34010975	     33.99804386	     89.95437384	      0.00000000	      0.00000000
      1.64000000	     -0.28815131	     -1.61410337	      1.10835496	      0.48657908	      0.89503964	     -1.00396424	      5.03108237	      3.91449228	    -13.36662073	    -21.92543345	     -0.38267100	     12.16939618	     -0.97560280	     -0.56838019	     27.00590460	      7.60727848	      7.85186179	    -59.60812789	     -1.04035809	      7.17518892	     18.58084478	     19.35444664	     -4.19108877	      1.37913623	     -0.67093336	     -1.01376236	    -10.14351181	    -13.03491397	     36.28469528	     89.95437384	      0.00000000	      0.00000000	     -5.51298125	      8.22392421	     16.81099380	     33.12015206	     89.95437384	      0.00000000	      0.00000000
      1.65000000	     -0.53673033	     -1.72141855	      0.99462356	      0.49541712	      0.89426185	     -1.00346563	      4.62072471	      4.05616712	    -13.52583826	    -21.86392594	     -0.38159750	     12.38062821	     -0.96028459	     -0.63150695	     28.05215909	      7.72293128	      8.05624381	    -57.83792069	     -1.00946215	      7.46292956	     18.60999290	     19.20745889	     -3.96336760	      1.46255143	     -0.50635814	     -0.64135887	    -10.26304008	    -12.96335345	     37.05072201	     89.95437384	      0.00000000	      0.00000000	     -6.10310176	      8.11448208	     16.81185714	     32.62844687	     89.95437384	      0.00000000	      0.00000000
